<svg width="350" height="60" viewBox="0 0 350 60" fill="none" xmlns="http://www.w3.org/2000/svg">
<path d="M83.284 40H74.436C74.0813 40 73.82 39.9253 73.652 39.776C73.5027 39.608 73.428 39.3467 73.428 38.992V35.716C73.428 35.3613 73.5027 35.1093 73.652 34.96C73.82 34.792 74.0813 34.708 74.436 34.708H81.968C82.2107 34.708 82.388 34.6333 82.5 34.484C82.6307 34.316 82.696 34.12 82.696 33.896C82.696 33.5787 82.6307 33.3453 82.5 33.196C82.388 33.0467 82.2107 32.9627 81.968 32.944L77.768 32.356C76.4613 32.1693 75.4067 31.74 74.604 31.068C73.82 30.396 73.428 29.276 73.428 27.708V24.768C73.428 23.1813 73.9413 21.968 74.968 21.128C75.9947 20.2693 77.4133 19.84 79.224 19.84H87.064C87.4187 19.84 87.6707 19.924 87.82 20.092C87.988 20.2413 88.072 20.4933 88.072 20.848V24.18C88.072 24.5347 87.988 24.796 87.82 24.964C87.6707 25.1133 87.4187 25.188 87.064 25.188H80.54C80.2973 25.188 80.1107 25.272 79.98 25.44C79.8493 25.5893 79.784 25.7853 79.784 26.028C79.784 26.2707 79.8493 26.476 79.98 26.644C80.1107 26.812 80.2973 26.9053 80.54 26.924L84.712 27.484C86.0187 27.6707 87.0733 28.1 87.876 28.772C88.6787 29.444 89.08 30.564 89.08 32.132V35.072C89.08 36.6587 88.5573 37.8813 87.512 38.74C86.4853 39.58 85.076 40 83.284 40ZM101.39 40H96.8535C96.4988 40 96.2375 39.9253 96.0695 39.776C95.9202 39.608 95.8455 39.3467 95.8455 38.992V25.244H91.7295C91.3748 25.244 91.1135 25.1693 90.9455 25.02C90.7962 24.852 90.7215 24.5907 90.7215 24.236V20.848C90.7215 20.4933 90.7962 20.2413 90.9455 20.092C91.1135 19.924 91.3748 19.84 91.7295 19.84H106.514C106.868 19.84 107.12 19.924 107.27 20.092C107.438 20.2413 107.522 20.4933 107.522 20.848V24.236C107.522 24.5907 107.438 24.852 107.27 25.02C107.12 25.1693 106.868 25.244 106.514 25.244H102.398V38.992C102.398 39.3467 102.314 39.608 102.146 39.776C101.996 39.9253 101.744 40 101.39 40ZM116.431 25.72L115.115 29.976H119.511L118.195 25.72C118.121 25.552 118.037 25.4307 117.943 25.356C117.869 25.2813 117.775 25.244 117.663 25.244H116.963C116.851 25.244 116.749 25.2813 116.655 25.356C116.581 25.4307 116.506 25.552 116.431 25.72ZM114.835 38.992C114.835 39.3467 114.751 39.608 114.583 39.776C114.434 39.9253 114.182 40 113.827 40H109.711C109.357 40 109.095 39.9253 108.927 39.776C108.778 39.608 108.703 39.3467 108.703 38.992V31.6C108.703 31.04 108.787 30.396 108.955 29.668C109.142 28.94 109.422 28.0907 109.795 27.12L112.231 20.764C112.343 20.4467 112.511 20.2133 112.735 20.064C112.978 19.9147 113.286 19.84 113.659 19.84H121.191C121.546 19.84 121.835 19.9147 122.059 20.064C122.302 20.2133 122.479 20.4467 122.591 20.764L125.027 27.12C125.401 28.0907 125.671 28.94 125.839 29.668C126.026 30.396 126.119 31.04 126.119 31.6V38.992C126.119 39.3467 126.035 39.608 125.867 39.776C125.718 39.9253 125.466 40 125.111 40H120.883C120.51 40 120.23 39.9253 120.043 39.776C119.875 39.608 119.791 39.3467 119.791 38.992V35.072H114.835V38.992ZM137.975 40H133.439C133.085 40 132.823 39.9253 132.655 39.776C132.506 39.608 132.431 39.3467 132.431 38.992V25.244H128.315C127.961 25.244 127.699 25.1693 127.531 25.02C127.382 24.852 127.307 24.5907 127.307 24.236V20.848C127.307 20.4933 127.382 20.2413 127.531 20.092C127.699 19.924 127.961 19.84 128.315 19.84H143.099C143.454 19.84 143.706 19.924 143.855 20.092C144.023 20.2413 144.107 20.4933 144.107 20.848V24.236C144.107 24.5907 144.023 24.852 143.855 25.02C143.706 25.1693 143.454 25.244 143.099 25.244H138.983V38.992C138.983 39.3467 138.899 39.608 138.731 39.776C138.582 39.9253 138.33 40 137.975 40ZM147.39 40C147.036 40 146.774 39.9253 146.606 39.776C146.457 39.608 146.382 39.3467 146.382 38.992V35.66C146.382 35.3053 146.457 35.0533 146.606 34.904C146.774 34.736 147.036 34.652 147.39 34.652H150.162V25.244H147.39C147.036 25.244 146.774 25.1693 146.606 25.02C146.457 24.852 146.382 24.5907 146.382 24.236V20.848C146.382 20.4933 146.457 20.2413 146.606 20.092C146.774 19.924 147.036 19.84 147.39 19.84H159.318C159.673 19.84 159.925 19.924 160.074 20.092C160.242 20.2413 160.326 20.4933 160.326 20.848V24.236C160.326 24.5907 160.242 24.852 160.074 25.02C159.925 25.1693 159.673 25.244 159.318 25.244H156.602V34.652H159.318C159.673 34.652 159.925 34.736 160.074 34.904C160.242 35.0533 160.326 35.3053 160.326 35.66V38.992C160.326 39.3467 160.242 39.608 160.074 39.776C159.925 39.9253 159.673 40 159.318 40H147.39ZM180.864 34.708C180.864 35.5667 180.733 36.3507 180.472 37.06C180.229 37.7507 179.781 38.348 179.128 38.852C178.493 39.3373 177.606 39.72 176.468 40C175.348 40.28 173.92 40.42 172.184 40.42C170.448 40.42 169.01 40.28 167.872 40C166.733 39.72 165.837 39.3373 165.184 38.852C164.549 38.348 164.101 37.7507 163.84 37.06C163.597 36.3507 163.476 35.5667 163.476 34.708V25.16C163.476 24.3013 163.597 23.5267 163.84 22.836C164.101 22.1267 164.549 21.52 165.184 21.016C165.837 20.512 166.733 20.12 167.872 19.84C169.01 19.56 170.448 19.42 172.184 19.42C173.92 19.42 175.348 19.56 176.468 19.84C177.606 20.12 178.493 20.512 179.128 21.016C179.781 21.52 180.229 22.1267 180.472 22.836C180.733 23.5267 180.864 24.3013 180.864 25.16V34.708ZM169.832 33.7C169.832 34.0733 169.972 34.3907 170.252 34.652C170.532 34.8947 171.176 35.016 172.184 35.016C173.192 35.016 173.836 34.8947 174.116 34.652C174.396 34.3907 174.536 34.0733 174.536 33.7V26.168C174.536 25.8133 174.396 25.5147 174.116 25.272C173.836 25.0107 173.192 24.88 172.184 24.88C171.176 24.88 170.532 25.0107 170.252 25.272C169.972 25.5147 169.832 25.8133 169.832 26.168V33.7ZM189.636 40H185.436C185.081 40 184.82 39.9253 184.652 39.776C184.503 39.608 184.428 39.3467 184.428 38.992V20.848C184.428 20.4933 184.503 20.2413 184.652 20.092C184.82 19.924 185.081 19.84 185.436 19.84H188.348C188.703 19.84 189.001 19.896 189.244 20.008C189.505 20.12 189.757 20.316 190 20.596L195.432 26.812V20.848C195.432 20.4933 195.507 20.2413 195.656 20.092C195.824 19.924 196.085 19.84 196.44 19.84H200.64C200.995 19.84 201.247 19.924 201.396 20.092C201.564 20.2413 201.648 20.4933 201.648 20.848V38.992C201.648 39.3467 201.564 39.608 201.396 39.776C201.247 39.9253 200.995 40 200.64 40H196.44C196.085 40 195.824 39.9253 195.656 39.776C195.507 39.608 195.432 39.3467 195.432 38.992V35.548L190.644 29.752V38.992C190.644 39.3467 190.56 39.608 190.392 39.776C190.243 39.9253 189.991 40 189.636 40ZM219.51 40H206.518C206.163 40 205.902 39.9253 205.734 39.776C205.585 39.608 205.51 39.3467 205.51 38.992V20.848C205.51 20.4933 205.585 20.2413 205.734 20.092C205.902 19.924 206.163 19.84 206.518 19.84H219.51C219.865 19.84 220.117 19.924 220.266 20.092C220.434 20.2413 220.518 20.4933 220.518 20.848V24.124C220.518 24.4787 220.434 24.74 220.266 24.908C220.117 25.0573 219.865 25.132 219.51 25.132H211.782V27.288H217.242C217.597 27.288 217.849 27.372 217.998 27.54C218.166 27.6893 218.25 27.9413 218.25 28.296V31.292C218.25 31.6467 218.166 31.908 217.998 32.076C217.849 32.2253 217.597 32.3 217.242 32.3H211.782V34.708H219.51C219.865 34.708 220.117 34.792 220.266 34.96C220.434 35.1093 220.518 35.3613 220.518 35.716V38.992C220.518 39.3467 220.434 39.608 220.266 39.776C220.117 39.9253 219.865 40 219.51 40ZM230.158 24.88V28.464H232.258C232.744 28.464 233.07 28.3427 233.238 28.1C233.406 27.8387 233.49 27.5213 233.49 27.148V26.196C233.49 25.8227 233.406 25.5147 233.238 25.272C233.07 25.0107 232.744 24.88 232.258 24.88H230.158ZM229.15 40H224.838C224.484 40 224.222 39.9253 224.054 39.776C223.905 39.608 223.83 39.3467 223.83 38.992V20.848C223.83 20.4933 223.905 20.2413 224.054 20.092C224.222 19.924 224.484 19.84 224.838 19.84H234.162C236.253 19.84 237.69 20.2787 238.474 21.156C239.277 22.0147 239.678 23.1347 239.678 24.516V25.804C239.678 26.588 239.557 27.26 239.314 27.82C239.09 28.3613 238.689 28.7533 238.11 28.996C239.118 29.108 239.93 29.5187 240.546 30.228C241.181 30.9373 241.498 31.88 241.498 33.056V38.992C241.498 39.3467 241.414 39.608 241.246 39.776C241.097 39.9253 240.845 40 240.49 40H236.15C235.796 40 235.534 39.9253 235.366 39.776C235.217 39.608 235.142 39.3467 235.142 38.992V34.708C235.142 34.2973 235.058 33.9987 234.89 33.812C234.741 33.6067 234.47 33.504 234.078 33.504H230.158V38.992C230.158 39.3467 230.074 39.608 229.906 39.776C229.757 39.9253 229.505 40 229.15 40ZM254.011 40H249.475C249.121 40 248.859 39.9253 248.691 39.776C248.542 39.608 248.467 39.3467 248.467 38.992V35.408L244.183 29.668C243.754 29.0893 243.465 28.5853 243.315 28.156C243.185 27.7267 243.119 27.0827 243.119 26.224V20.848C243.119 20.4933 243.194 20.2413 243.343 20.092C243.511 19.924 243.773 19.84 244.127 19.84H248.439C248.794 19.84 249.046 19.924 249.195 20.092C249.363 20.2413 249.447 20.4933 249.447 20.848V25.44C249.447 25.6267 249.457 25.8227 249.475 26.028C249.494 26.2333 249.569 26.4293 249.699 26.616L250.987 28.632C251.081 28.8 251.174 28.9213 251.267 28.996C251.379 29.0707 251.51 29.108 251.659 29.108H251.939C252.089 29.108 252.21 29.0707 252.303 28.996C252.415 28.9213 252.518 28.8 252.611 28.632L253.899 26.616C254.03 26.4293 254.105 26.2333 254.123 26.028C254.142 25.8227 254.151 25.6267 254.151 25.44V20.848C254.151 20.4933 254.226 20.2413 254.375 20.092C254.543 19.924 254.805 19.84 255.159 19.84H259.331C259.686 19.84 259.938 19.924 260.087 20.092C260.255 20.2413 260.339 20.4933 260.339 20.848V26.224C260.339 27.0827 260.265 27.7267 260.115 28.156C259.966 28.5853 259.686 29.0893 259.275 29.668L255.019 35.436V38.992C255.019 39.3467 254.935 39.608 254.767 39.776C254.618 39.9253 254.366 40 254.011 40ZM278.901 40H270.053C269.699 40 269.437 39.9253 269.269 39.776C269.12 39.608 269.045 39.3467 269.045 38.992V35.716C269.045 35.3613 269.12 35.1093 269.269 34.96C269.437 34.792 269.699 34.708 270.053 34.708H277.585C277.828 34.708 278.005 34.6333 278.117 34.484C278.248 34.316 278.313 34.12 278.313 33.896C278.313 33.5787 278.248 33.3453 278.117 33.196C278.005 33.0467 277.828 32.9627 277.585 32.944L273.385 32.356C272.079 32.1693 271.024 31.74 270.221 31.068C269.437 30.396 269.045 29.276 269.045 27.708V24.768C269.045 23.1813 269.559 21.968 270.585 21.128C271.612 20.2693 273.031 19.84 274.841 19.84H282.681C283.036 19.84 283.288 19.924 283.437 20.092C283.605 20.2413 283.689 20.4933 283.689 20.848V24.18C283.689 24.5347 283.605 24.796 283.437 24.964C283.288 25.1133 283.036 25.188 282.681 25.188H276.157C275.915 25.188 275.728 25.272 275.597 25.44C275.467 25.5893 275.401 25.7853 275.401 26.028C275.401 26.2707 275.467 26.476 275.597 26.644C275.728 26.812 275.915 26.9053 276.157 26.924L280.329 27.484C281.636 27.6707 282.691 28.1 283.493 28.772C284.296 29.444 284.697 30.564 284.697 32.132V35.072C284.697 36.6587 284.175 37.8813 283.129 38.74C282.103 39.58 280.693 40 278.901 40ZM293.108 40H288.768C288.413 40 288.152 39.9253 287.984 39.776C287.835 39.608 287.76 39.3467 287.76 38.992V20.848C287.76 20.4933 287.835 20.2413 287.984 20.092C288.152 19.924 288.413 19.84 288.768 19.84H293.108C293.463 19.84 293.715 19.924 293.864 20.092C294.032 20.2413 294.116 20.4933 294.116 20.848V26.924H298.792V20.848C298.792 20.4933 298.867 20.2413 299.016 20.092C299.184 19.924 299.445 19.84 299.8 19.84H304.14C304.495 19.84 304.747 19.924 304.896 20.092C305.064 20.2413 305.148 20.4933 305.148 20.848V38.992C305.148 39.3467 305.064 39.608 304.896 39.776C304.747 39.9253 304.495 40 304.14 40H299.8C299.445 40 299.184 39.9253 299.016 39.776C298.867 39.608 298.792 39.3467 298.792 38.992V32.776H294.116V38.992C294.116 39.3467 294.032 39.608 293.864 39.776C293.715 39.9253 293.463 40 293.108 40ZM326.086 34.708C326.086 35.5667 325.956 36.3507 325.694 37.06C325.452 37.7507 325.004 38.348 324.35 38.852C323.716 39.3373 322.829 39.72 321.69 40C320.57 40.28 319.142 40.42 317.406 40.42C315.67 40.42 314.233 40.28 313.094 40C311.956 39.72 311.06 39.3373 310.406 38.852C309.772 38.348 309.324 37.7507 309.062 37.06C308.82 36.3507 308.698 35.5667 308.698 34.708V25.16C308.698 24.3013 308.82 23.5267 309.062 22.836C309.324 22.1267 309.772 21.52 310.406 21.016C311.06 20.512 311.956 20.12 313.094 19.84C314.233 19.56 315.67 19.42 317.406 19.42C319.142 19.42 320.57 19.56 321.69 19.84C322.829 20.12 323.716 20.512 324.35 21.016C325.004 21.52 325.452 22.1267 325.694 22.836C325.956 23.5267 326.086 24.3013 326.086 25.16V34.708ZM315.054 33.7C315.054 34.0733 315.194 34.3907 315.474 34.652C315.754 34.8947 316.398 35.016 317.406 35.016C318.414 35.016 319.058 34.8947 319.338 34.652C319.618 34.3907 319.758 34.0733 319.758 33.7V26.168C319.758 25.8133 319.618 25.5147 319.338 25.272C319.058 25.0107 318.414 24.88 317.406 24.88C316.398 24.88 315.754 25.0107 315.474 25.272C315.194 25.5147 315.054 25.8133 315.054 26.168V33.7ZM334.999 40H330.659C330.304 40 330.043 39.9253 329.875 39.776C329.725 39.608 329.651 39.3467 329.651 38.992V20.848C329.651 20.4933 329.725 20.2413 329.875 20.092C330.043 19.924 330.304 19.84 330.659 19.84H339.227C341.765 19.84 343.501 20.344 344.435 21.352C345.368 22.36 345.835 23.676 345.835 25.3V28.884C345.835 30.508 345.368 31.824 344.435 32.832C343.501 33.84 341.765 34.344 339.227 34.344H336.007V38.992C336.007 39.3467 335.923 39.608 335.755 39.776C335.605 39.9253 335.353 40 334.999 40ZM335.951 25.076V29.304H338.471C339.012 29.304 339.367 29.164 339.535 28.884C339.703 28.604 339.787 28.2867 339.787 27.932V26.448C339.787 26.0933 339.703 25.776 339.535 25.496C339.367 25.216 339.012 25.076 338.471 25.076H335.951Z" fill="white"/>
<path d="M6.80682 46.2114L9.13332 50.4714L11.4598 46.2114C9.99957 45.4609 8.26707 45.4609 6.80682 46.2114Z" fill="#754C29"/>
<path d="M4.85522 42.6362L6.80681 46.2087C8.26706 45.459 10.0005 45.459 11.4607 46.2087L13.4123 42.6362L9.11772 39.7876L4.85522 42.6362Z" fill="#D1D3D4"/>
<path d="M6.80682 46.2114L9.13332 50.4714L11.4598 46.2114C9.99957 45.4609 8.26707 45.4609 6.80682 46.2114Z" fill="#754C29"/>
<path d="M4.85522 42.6362L6.80681 46.2087C8.26706 45.459 10.0005 45.459 11.4607 46.2087L13.4123 42.6362L9.11772 39.7876L4.85522 42.6362Z" fill="#D1D3D4"/>
<path d="M4.73334 19.7162V42.4165L4.85525 42.638L9.11775 39.7904L9.13425 39.8013V19.7162H4.73334Z" fill="#FFCD00"/>
<path d="M9.13336 19.7162V39.8014L13.4114 42.6389L13.5334 42.4165V19.7162H9.13336Z" fill="#D80027"/>
<path d="M13.5333 19.7162V16.0549H4.73334V19.7162H9.13334H13.5333Z" fill="#2488FF"/>
<path d="M13.5333 13.1258C13.5333 10.6993 11.5634 8.73226 9.13334 8.73226C6.70325 8.73226 4.73334 10.6993 4.73334 13.1258V16.0549H13.5333V13.1258Z" fill="#F1F2F2"/>
<path d="M12.0667 19.7162V41.7474L13.4114 42.6389L13.5333 42.4165V19.7162H12.0667Z" fill="#BD0022"/>
<path d="M12.0667 16.0549H13.5333V19.7162H12.0667V16.0549Z" fill="#006DF0"/>
<path d="M9.13336 8.73226C8.88769 8.73409 8.64202 8.75606 8.40002 8.79816C10.5157 9.15514 12.0649 10.984 12.0667 13.1258V16.0549H13.5334V13.1258C13.5334 10.6993 11.5634 8.73226 9.13336 8.73226Z" fill="#D1D3D4"/>
<path d="M20.1334 8.73226H31.8667V51.2036H20.1334V8.73226Z" fill="#FFCD00"/>
<path d="M26 14.5904C26.81 14.5904 27.4667 13.9347 27.4667 13.1259C27.4667 12.317 26.81 11.6613 26 11.6613C25.19 11.6613 24.5333 12.317 24.5333 13.1259C24.5333 13.9347 25.19 14.5904 26 14.5904Z" fill="#D80027"/>
<path d="M46.5334 10.1968C46.5334 9.38764 45.877 8.73226 45.0667 8.73226H42.1334C41.323 8.73226 40.6667 9.38764 40.6667 10.1968V13.1259H46.5334V10.1968Z" fill="#D80027"/>
<path d="M47.2667 13.8581C47.2667 13.4535 46.9385 13.1259 46.5334 13.1259H40.6667C40.2615 13.1259 39.9333 13.4535 39.9333 13.8581V16.0549H47.2667V13.8581Z" fill="#FFCD00"/>
<path d="M39.9333 16.0549H47.2667V32.897H39.9333V16.0549Z" fill="#57A4FF"/>
<path d="M39.9333 32.897H47.2667V35.8261H39.9333V32.897Z" fill="#006DF0"/>
<path d="M39.9333 35.8261H47.2667V38.7551H39.9333V35.8261Z" fill="#9BC9FF"/>
<path d="M39.9333 38.7551H47.2667V41.6842H39.9333V38.7551Z" fill="#006DF0"/>
<path d="M47.2667 42.3085V41.6842H39.9333V42.3085C39.9333 42.8577 40.0883 43.395 40.3788 43.8609L43.6 49.0069L46.8212 43.8609C47.1118 43.3959 47.2667 42.8577 47.2667 42.3085Z" fill="#57A4FF"/>
<path d="M45.0666 8.73226H43.6C44.4103 8.73226 45.0666 9.38764 45.0666 10.1968V13.1259H46.5333V10.1968C46.5333 9.38764 45.877 8.73226 45.0666 8.73226Z" fill="#BD0022"/>
<path d="M46.5333 13.1259H45.0667C45.4718 13.1259 45.8 13.4535 45.8 13.8581V16.0549H47.2667V13.8581C47.2667 13.4535 46.9385 13.1259 46.5333 13.1259Z" fill="#EBBF00"/>
<path d="M45.8 16.0549H47.2667V32.897H45.8V16.0549Z" fill="#2488FF"/>
<path d="M45.8 32.897H47.2667V35.8261H45.8V32.897Z" fill="#005ECE"/>
<path d="M45.8 35.8261H47.2667V38.7551H45.8V35.8261Z" fill="#57A4FF"/>
<path d="M45.8 38.7551H47.2667V41.6842H45.8V38.7551Z" fill="#005ECE"/>
<path d="M45.8 41.6842V42.3085C45.8 42.8577 45.6451 43.395 45.3545 43.8609L42.8666 47.8352L43.6 49.0069L46.8211 43.8609C47.1126 43.395 47.2666 42.8577 47.2666 42.3085V41.6842H45.8Z" fill="#2488FF"/>
<path d="M30.4 8.73226H31.8667V51.2036H30.4V8.73226Z" fill="#EBBF00"/>
<path d="M9.13333 8C6.29992 8.00366 4.00367 10.2966 4 13.1259V42.6032L9.13333 52L14.2667 42.6032V13.1259C14.263 10.2966 11.9667 8.00366 9.13333 8ZM9.11775 40.6709L12.4452 42.8778L11.1353 45.276C9.841 44.8101 8.42383 44.8101 7.1295 45.276L5.81867 42.8751L9.11775 40.6709ZM8.4 39.3886L5.46667 41.3492V20.4485H8.4V39.3886ZM7.8445 46.5831C8.68417 46.3277 9.58158 46.3277 10.4212 46.5831L9.13333 48.9428L7.8445 46.5831ZM12.8 41.3538L9.86667 39.4087V20.4485H12.8V41.3538ZM12.8 18.984H5.46667V16.7872H12.8V18.984ZM12.8 15.3227H5.46667V13.1259C5.46667 11.1039 7.10842 9.46453 9.13333 9.46453C11.1582 9.46453 12.8 11.1039 12.8 13.1259V15.3227Z" fill="black"/>
<path d="M19.4 51.9359H32.6V8H19.4V51.9359ZM20.8667 9.46453H31.1334V18.2517H27.4667V19.7162H31.1334V21.1808H28.9334V22.6453H31.1334V24.1098H27.4667V25.5744H31.1334V27.0389H28.9334V28.5034H31.1334V29.968H27.4667V31.4325H31.1334V32.897H28.9334V34.3616H31.1334V35.8261H27.4667V37.2906H31.1334V38.7551H28.9334V40.2197H31.1334V41.6842H27.4667V43.1487H31.1334V44.6133H28.9334V46.0778H31.1334V47.5423H27.4667V49.0069H31.1334V50.4714H20.8667V9.46453Z" fill="black"/>
<path d="M28.2 13.1259C28.2 11.913 27.2146 10.9291 26 10.9291C24.7854 10.9291 23.8 11.913 23.8 13.1259C23.8 14.3387 24.7854 15.3227 26 15.3227C27.2146 15.3227 28.2 14.3387 28.2 13.1259ZM26 13.8581C25.5948 13.8581 25.2667 13.5304 25.2667 13.1259C25.2667 12.7213 25.5948 12.3936 26 12.3936C26.4052 12.3936 26.7333 12.7213 26.7333 13.1259C26.7333 13.5304 26.4052 13.8581 26 13.8581Z" fill="black"/>
<path d="M47.2667 12.5968V10.1968C47.2667 8.98398 46.2812 8 45.0667 8H42.1333C40.9187 8 39.9333 8.98398 39.9333 10.1968V12.5968C39.4814 12.8568 39.2018 13.3373 39.2 13.8581V15.3227H38.4667C37.2521 15.3227 36.2667 16.3066 36.2667 17.5194V26.3066H37.7333V17.5194C37.7333 17.1149 38.0615 16.7872 38.4667 16.7872H39.2L39.2073 42.4165C39.2247 43.0645 39.4145 43.697 39.7582 44.2471L42.8667 49.2165V51.9359H44.3333V49.2165L47.4417 44.2471C47.7855 43.697 47.9752 43.0645 47.9927 42.4165L48 13.8581C47.9982 13.3373 47.7186 12.8568 47.2667 12.5968ZM41.4 10.1968C41.4 9.79222 41.7282 9.46453 42.1333 9.46453H45.0667C45.4718 9.46453 45.8 9.79222 45.8 10.1968V12.3936H41.4V10.1968ZM46.1987 43.4728L43.6 47.6247L41.0012 43.4718C40.8005 43.1542 40.6859 42.7908 40.6667 42.4156H46.5333C46.515 42.7908 46.3995 43.1551 46.1987 43.4728ZM46.5333 40.9519H40.6667V39.4874H46.5333V40.9519ZM46.5333 38.0229H40.6667V36.5583H46.5333V38.0229ZM46.5333 35.0938H40.6667V33.6293H46.5333V35.0938ZM46.5333 32.1648H40.6667V16.7872H46.5333V32.1648ZM40.6667 15.3227V13.8581H46.5333V15.3227H40.6667Z" fill="black"/>
</svg>
